<mxfile host="app.diagrams.net" modified="2024-03-21T15:28:11.479Z" agent="Mozilla/5.0 (Windows NT 10.0; Win64; x64) AppleWebKit/537.36 (KHTML, like Gecko) Chrome/122.0.0.0 Safari/537.36" etag="zEoKlsPDtcEwd07_QXtP" version="24.0.5" type="github">
  <diagram name="Page-1" id="zuVl1p_9e58arT9JCFd5">
    <mxGraphModel dx="1284" dy="693" grid="1" gridSize="10" guides="1" tooltips="1" connect="1" arrows="1" fold="1" page="1" pageScale="1" pageWidth="827" pageHeight="1169" math="0" shadow="0">
      <root>
        <mxCell id="0" />
        <mxCell id="1" parent="0" />
        <mxCell id="-ENGaBQEuKALO4Cf9I8J-31" value="" style="rounded=0;whiteSpace=wrap;html=1;dashed=1;dashPattern=8 8;" vertex="1" parent="1">
          <mxGeometry x="182" y="530" width="510" height="240" as="geometry" />
        </mxCell>
        <mxCell id="-ENGaBQEuKALO4Cf9I8J-32" value="" style="edgeStyle=orthogonalEdgeStyle;rounded=0;orthogonalLoop=1;jettySize=auto;html=1;" edge="1" parent="1" source="-ENGaBQEuKALO4Cf9I8J-1" target="-ENGaBQEuKALO4Cf9I8J-2">
          <mxGeometry relative="1" as="geometry" />
        </mxCell>
        <mxCell id="-ENGaBQEuKALO4Cf9I8J-1" value="Actor" style="shape=umlActor;verticalLabelPosition=bottom;verticalAlign=top;html=1;outlineConnect=0;sketch=1;curveFitting=1;jiggle=2;" vertex="1" parent="1">
          <mxGeometry x="60" y="311" width="30" height="60" as="geometry" />
        </mxCell>
        <mxCell id="-ENGaBQEuKALO4Cf9I8J-12" style="edgeStyle=orthogonalEdgeStyle;rounded=0;orthogonalLoop=1;jettySize=auto;html=1;entryX=0;entryY=0.5;entryDx=0;entryDy=0;" edge="1" parent="1" source="-ENGaBQEuKALO4Cf9I8J-2" target="-ENGaBQEuKALO4Cf9I8J-7">
          <mxGeometry relative="1" as="geometry" />
        </mxCell>
        <mxCell id="-ENGaBQEuKALO4Cf9I8J-13" style="edgeStyle=orthogonalEdgeStyle;rounded=0;orthogonalLoop=1;jettySize=auto;html=1;entryX=0;entryY=0.5;entryDx=0;entryDy=0;" edge="1" parent="1" source="-ENGaBQEuKALO4Cf9I8J-2" target="-ENGaBQEuKALO4Cf9I8J-4">
          <mxGeometry relative="1" as="geometry" />
        </mxCell>
        <mxCell id="-ENGaBQEuKALO4Cf9I8J-14" style="edgeStyle=orthogonalEdgeStyle;rounded=0;orthogonalLoop=1;jettySize=auto;html=1;entryX=0;entryY=0.5;entryDx=0;entryDy=0;" edge="1" parent="1" source="-ENGaBQEuKALO4Cf9I8J-2" target="-ENGaBQEuKALO4Cf9I8J-5">
          <mxGeometry relative="1" as="geometry" />
        </mxCell>
        <mxCell id="-ENGaBQEuKALO4Cf9I8J-2" value="Presentation/UI" style="rounded=1;whiteSpace=wrap;html=1;sketch=1;curveFitting=1;jiggle=2;" vertex="1" parent="1">
          <mxGeometry x="170" y="310" width="120" height="60" as="geometry" />
        </mxCell>
        <mxCell id="-ENGaBQEuKALO4Cf9I8J-3" value="Data Streaming&amp;nbsp;&lt;div&gt;Layer (Aggregator)&lt;/div&gt;" style="rounded=1;whiteSpace=wrap;html=1;sketch=1;curveFitting=1;jiggle=2;" vertex="1" parent="1">
          <mxGeometry x="400" y="110" width="120" height="60" as="geometry" />
        </mxCell>
        <mxCell id="-ENGaBQEuKALO4Cf9I8J-16" value="" style="edgeStyle=orthogonalEdgeStyle;rounded=0;orthogonalLoop=1;jettySize=auto;html=1;" edge="1" parent="1" source="-ENGaBQEuKALO4Cf9I8J-4" target="-ENGaBQEuKALO4Cf9I8J-6">
          <mxGeometry relative="1" as="geometry" />
        </mxCell>
        <mxCell id="-ENGaBQEuKALO4Cf9I8J-4" value="B&lt;span style=&quot;background-color: initial;&quot;&gt;ookings&lt;/span&gt;" style="rounded=1;whiteSpace=wrap;html=1;sketch=1;curveFitting=1;jiggle=2;" vertex="1" parent="1">
          <mxGeometry x="400" y="316" width="120" height="60" as="geometry" />
        </mxCell>
        <mxCell id="-ENGaBQEuKALO4Cf9I8J-5" value="Payments" style="rounded=1;whiteSpace=wrap;html=1;sketch=1;curveFitting=1;jiggle=2;" vertex="1" parent="1">
          <mxGeometry x="400" y="413" width="120" height="60" as="geometry" />
        </mxCell>
        <mxCell id="-ENGaBQEuKALO4Cf9I8J-6" value="" style="shape=cylinder3;whiteSpace=wrap;html=1;boundedLbl=1;backgroundOutline=1;size=15;sketch=1;curveFitting=1;jiggle=2;" vertex="1" parent="1">
          <mxGeometry x="600" y="316" width="50" height="60" as="geometry" />
        </mxCell>
        <mxCell id="-ENGaBQEuKALO4Cf9I8J-15" value="" style="edgeStyle=orthogonalEdgeStyle;rounded=0;orthogonalLoop=1;jettySize=auto;html=1;" edge="1" parent="1" source="-ENGaBQEuKALO4Cf9I8J-7" target="-ENGaBQEuKALO4Cf9I8J-10">
          <mxGeometry relative="1" as="geometry" />
        </mxCell>
        <mxCell id="-ENGaBQEuKALO4Cf9I8J-7" value="Flights Store" style="rounded=1;whiteSpace=wrap;html=1;sketch=1;curveFitting=1;jiggle=2;" vertex="1" parent="1">
          <mxGeometry x="400" y="210" width="120" height="60" as="geometry" />
        </mxCell>
        <mxCell id="-ENGaBQEuKALO4Cf9I8J-10" value="cache" style="shape=cylinder3;whiteSpace=wrap;html=1;boundedLbl=1;backgroundOutline=1;size=15;sketch=1;curveFitting=1;jiggle=2;" vertex="1" parent="1">
          <mxGeometry x="601" y="210" width="50" height="60" as="geometry" />
        </mxCell>
        <mxCell id="-ENGaBQEuKALO4Cf9I8J-11" style="edgeStyle=orthogonalEdgeStyle;rounded=0;orthogonalLoop=1;jettySize=auto;html=1;entryX=0.5;entryY=0;entryDx=0;entryDy=0;entryPerimeter=0;" edge="1" parent="1" source="-ENGaBQEuKALO4Cf9I8J-3" target="-ENGaBQEuKALO4Cf9I8J-10">
          <mxGeometry relative="1" as="geometry" />
        </mxCell>
        <mxCell id="-ENGaBQEuKALO4Cf9I8J-17" value="" style="endArrow=classic;html=1;rounded=0;exitX=0.5;exitY=0;exitDx=0;exitDy=0;entryX=0.5;entryY=1;entryDx=0;entryDy=0;" edge="1" parent="1" source="-ENGaBQEuKALO4Cf9I8J-4" target="-ENGaBQEuKALO4Cf9I8J-7">
          <mxGeometry width="50" height="50" relative="1" as="geometry">
            <mxPoint x="390" y="300" as="sourcePoint" />
            <mxPoint x="440" y="250" as="targetPoint" />
          </mxGeometry>
        </mxCell>
        <mxCell id="-ENGaBQEuKALO4Cf9I8J-18" value="Data Streaming&amp;nbsp;&lt;div&gt;Layer&lt;/div&gt;" style="rounded=1;whiteSpace=wrap;html=1;sketch=1;curveFitting=1;jiggle=2;" vertex="1" parent="1">
          <mxGeometry x="30" y="555" width="120" height="60" as="geometry" />
        </mxCell>
        <mxCell id="-ENGaBQEuKALO4Cf9I8J-19" value="Kafka" style="rounded=1;whiteSpace=wrap;html=1;sketch=1;curveFitting=1;jiggle=2;" vertex="1" parent="1">
          <mxGeometry x="354" y="560" width="120" height="60" as="geometry" />
        </mxCell>
        <mxCell id="-ENGaBQEuKALO4Cf9I8J-27" value="" style="edgeStyle=orthogonalEdgeStyle;rounded=0;orthogonalLoop=1;jettySize=auto;html=1;" edge="1" parent="1" source="-ENGaBQEuKALO4Cf9I8J-20" target="-ENGaBQEuKALO4Cf9I8J-26">
          <mxGeometry relative="1" as="geometry" />
        </mxCell>
        <mxCell id="-ENGaBQEuKALO4Cf9I8J-20" value="API Polling" style="rounded=1;whiteSpace=wrap;html=1;sketch=1;curveFitting=1;jiggle=2;" vertex="1" parent="1">
          <mxGeometry x="354" y="680" width="120" height="60" as="geometry" />
        </mxCell>
        <mxCell id="-ENGaBQEuKALO4Cf9I8J-25" value="" style="edgeStyle=orthogonalEdgeStyle;rounded=0;orthogonalLoop=1;jettySize=auto;html=1;" edge="1" parent="1" source="-ENGaBQEuKALO4Cf9I8J-23" target="-ENGaBQEuKALO4Cf9I8J-19">
          <mxGeometry relative="1" as="geometry" />
        </mxCell>
        <mxCell id="-ENGaBQEuKALO4Cf9I8J-23" value="Data Ingestion" style="rounded=1;whiteSpace=wrap;html=1;sketch=1;curveFitting=1;jiggle=2;" vertex="1" parent="1">
          <mxGeometry x="190" y="559" width="120" height="60" as="geometry" />
        </mxCell>
        <mxCell id="-ENGaBQEuKALO4Cf9I8J-26" value="1st API" style="rounded=1;whiteSpace=wrap;html=1;sketch=1;curveFitting=1;jiggle=2;" vertex="1" parent="1">
          <mxGeometry x="554" y="680" width="120" height="60" as="geometry" />
        </mxCell>
        <mxCell id="-ENGaBQEuKALO4Cf9I8J-28" value="API" style="rounded=1;whiteSpace=wrap;html=1;sketch=1;curveFitting=1;jiggle=2;" vertex="1" parent="1">
          <mxGeometry x="565" y="690" width="120" height="60" as="geometry" />
        </mxCell>
        <mxCell id="-ENGaBQEuKALO4Cf9I8J-29" value="&lt;font style=&quot;font-size: 11px;&quot;&gt;time driven&lt;/font&gt;" style="text;html=1;align=center;verticalAlign=middle;whiteSpace=wrap;rounded=0;fontStyle=2" vertex="1" parent="1">
          <mxGeometry x="376" y="710" width="74" height="30" as="geometry" />
        </mxCell>
        <mxCell id="-ENGaBQEuKALO4Cf9I8J-33" style="edgeStyle=orthogonalEdgeStyle;rounded=0;orthogonalLoop=1;jettySize=auto;html=1;entryX=1;entryY=0.5;entryDx=0;entryDy=0;entryPerimeter=0;exitX=0.998;exitY=0.583;exitDx=0;exitDy=0;exitPerimeter=0;dashed=1;dashPattern=8 8;startArrow=classic;startFill=1;" edge="1" parent="1" source="-ENGaBQEuKALO4Cf9I8J-31" target="-ENGaBQEuKALO4Cf9I8J-10">
          <mxGeometry relative="1" as="geometry">
            <Array as="points">
              <mxPoint x="750" y="670" />
              <mxPoint x="750" y="240" />
            </Array>
          </mxGeometry>
        </mxCell>
      </root>
    </mxGraphModel>
  </diagram>
</mxfile>
